<mxfile host="app.diagrams.net" modified="2022-01-31T02:31:28.896Z" agent="5.0 (Macintosh)" etag="3GreeEQEGYi8Qs0XBsRS" version="16.4.7" type="github">
  <diagram id="nIx1Jtaw1bz3i__SV9nJ" name="第 1 页">
    <mxGraphModel dx="1691" dy="1364" grid="0" gridSize="10" guides="1" tooltips="1" connect="1" arrows="1" fold="1" page="0" pageScale="1" pageWidth="1920" pageHeight="1200" math="0" shadow="0">
      <root>
        <mxCell id="0" />
        <mxCell id="1" parent="0" />
        <mxCell id="J8hnAiauzTjwltSrcoCx-1" value="AnnotationConfigServletWeb ServerApplicationContext" style="rounded=0;whiteSpace=wrap;html=1;fillColor=#ffe6cc;strokeColor=#d79b00;" vertex="1" parent="1">
          <mxGeometry x="-765" y="-515" width="185" height="60" as="geometry" />
        </mxCell>
        <mxCell id="J8hnAiauzTjwltSrcoCx-5" value="" style="edgeStyle=orthogonalEdgeStyle;rounded=0;orthogonalLoop=1;jettySize=auto;html=1;fontColor=#FF6666;" edge="1" parent="1" source="J8hnAiauzTjwltSrcoCx-2" target="J8hnAiauzTjwltSrcoCx-4">
          <mxGeometry relative="1" as="geometry" />
        </mxCell>
        <mxCell id="J8hnAiauzTjwltSrcoCx-6" value="@Import" style="edgeLabel;html=1;align=center;verticalAlign=middle;resizable=0;points=[];fontColor=#FF6666;" vertex="1" connectable="0" parent="J8hnAiauzTjwltSrcoCx-5">
          <mxGeometry x="-0.1751" y="-1" relative="1" as="geometry">
            <mxPoint as="offset" />
          </mxGeometry>
        </mxCell>
        <mxCell id="J8hnAiauzTjwltSrcoCx-2" value="EnableAutoConfiguration" style="rounded=0;whiteSpace=wrap;html=1;fillColor=#ffe6cc;strokeColor=#d79b00;" vertex="1" parent="1">
          <mxGeometry x="-751" y="-393" width="165" height="60" as="geometry" />
        </mxCell>
        <mxCell id="J8hnAiauzTjwltSrcoCx-4" value="AutoConfigurationImportSelector" style="whiteSpace=wrap;html=1;fillColor=#ffe6cc;strokeColor=#d79b00;rounded=0;" vertex="1" parent="1">
          <mxGeometry x="-777.75" y="-224" width="218.5" height="60" as="geometry" />
        </mxCell>
      </root>
    </mxGraphModel>
  </diagram>
</mxfile>
